# xmcd
#
# Track frame offsets: 
#        300
#        13558
#        28158
#        43271
#        57921
#        82869
#        93918
#        111327
#        130535
#        144925
#        162106
#
# Disc length: 2363 seconds
#
# Revision: 0
# Processed by: cddbd v1.5.2PL0 Copyright (c) Steve Scherf et al.
# Submitted via: ExactAudioCopy v1.0b1
#
DISCID=8409370b
DTITLE=Candye Kane - Knockout
DYEAR=1995
DGENRE=Blues
TTITLE0=I'm On A Bender
TTITLE1=Bigger And Better
TTITLE2=Watching The River Flow
TTITLE3=The Blues I Feel For You
TTITLE4=Sharktown
TTITLE5=Cheek To Cheek
TTITLE6=We Can Love
TTITLE7=Call Me
TTITLE8=Easy Money
TTITLE9=There's Nobody Home
TTITLE10=Get It Over Baby
EXTD=
EXTT0=
EXTT1=
EXTT2=
EXTT3=
EXTT4=
EXTT5=
EXTT6=
EXTT7=
EXTT8=
EXTT9=
EXTT10=
PLAYORDER=
